<svg xmlns="http://www.w3.org/2000/svg" width="1500" height="620" viewBox="0 0 1500 620"><defs><marker id="a" markerWidth="9" markerHeight="9" refX="8" refY="3" orient="auto"><path d="M0 0v6l8-3z" fill="#455a64"/></marker><style>.t{font:700 23px system-ui}.h{font:700 15px system-ui}.p{font:13px system-ui;fill:#455a64}.e{stroke:#455a64;stroke-width:2.5;fill:none;marker-end:url(#a)}.d{stroke-dasharray:8 6}</style></defs><rect width="1500" height="620" fill="#fafafa"/><text x="750" y="40" text-anchor="middle" class="t">Packet Tracer Lab 03 — DHCP, PAT, and an ISP Edge</text><rect x="50" y="100" width="420" height="400" rx="18" fill="#e3f2fd" stroke="#4f81bd" stroke-width="2"/><text x="80" y="138" class="h">Private LAN · 192.168.1.0/24</text><rect x="100" y="205" width="150" height="65" rx="10" fill="#fff" stroke="#4f81bd"/><text x="175" y="233" text-anchor="middle" class="h">PC0 · DHCP</text><text x="175" y="255" text-anchor="middle" class="p">192.168.1.2</text><rect x="100" y="330" width="150" height="65" rx="10" fill="#fff" stroke="#4f81bd"/><text x="175" y="358" text-anchor="middle" class="h">PC1 · DHCP</text><text x="175" y="380" text-anchor="middle" class="p">192.168.1.3</text><rect x="300" y="265" width="130" height="80" rx="10" fill="#fff4cc" stroke="#c9a227"/><text x="365" y="297" text-anchor="middle" class="h">Switch0</text><rect x="535" y="210" width="230" height="180" rx="14" fill="#fde2e0" stroke="#bf5b55" stroke-width="2"/><text x="650" y="243" text-anchor="middle" class="h">Router0 · Edge/NAT</text><text x="650" y="273" text-anchor="middle" class="p">LAN: 192.168.1.1</text><text x="650" y="300" text-anchor="middle" class="p">WAN: 203.0.113.1/30</text><text x="650" y="327" text-anchor="middle" class="p">DHCP + PAT overload</text><rect x="850" y="225" width="220" height="150" rx="14" fill="#ffe8cc" stroke="#d38b20" stroke-width="2"/><text x="960" y="260" text-anchor="middle" class="h">Router1 · ISP</text><text x="960" y="290" text-anchor="middle" class="p">203.0.113.2/30</text><text x="960" y="318" text-anchor="middle" class="p">198.51.100.1/24</text><rect x="1200" y="225" width="230" height="150" rx="14" fill="#e6f4e2" stroke="#6c9f54" stroke-width="2"/><text x="1315" y="260" text-anchor="middle" class="h">Server0</text><text x="1315" y="290" text-anchor="middle" class="p">198.51.100.2</text><text x="1315" y="318" text-anchor="middle" class="p">HTTP 80 · FTP 21</text><path d="M250 237H300M250 362H300M430 305H535M765 300H850M1070 300H1200" class="e"/><path d="M535 470H765" class="e d"/><text x="650" y="455" text-anchor="middle" class="p">PAT: 192.168.1.x:port → 203.0.113.1:translated-port</text></svg>