<svg xmlns="http://www.w3.org/2000/svg" width="1500" height="650" viewBox="0 0 1500 650"><defs><marker id="a" markerWidth="9" markerHeight="9" refX="8" refY="3" orient="auto"><path d="M0 0v6l8-3z" fill="#455a64"/></marker><style>.t{font:700 23px system-ui}.h{font:700 15px system-ui}.p{font:13px system-ui;fill:#455a64}.e{stroke:#455a64;stroke-width:2.5;fill:none;marker-end:url(#a)}.d{stroke-dasharray:8 6}</style></defs><rect width="1500" height="650" fill="#fafafa"/><text x="750" y="40" text-anchor="middle" class="t">Packet Tracer Lab 06 — PAT and Static Port Forwarding</text><rect x="50" y="100" width="480" height="430" rx="18" fill="#e3f2fd" stroke="#4f81bd" stroke-width="2"/><text x="80" y="138" class="h">Inside network · 192.168.1.0/24</text><rect x="100" y="195" width="170" height="65" rx="10" fill="#fff" stroke="#4f81bd"/><text x="185" y="234" text-anchor="middle" class="h">PC0 · .10</text><rect x="100" y="295" width="170" height="65" rx="10" fill="#fff" stroke="#4f81bd"/><text x="185" y="334" text-anchor="middle" class="h">PC1 · .11</text><rect x="100" y="395" width="210" height="85" rx="10" fill="#fff" stroke="#4f81bd"/><text x="205" y="427" text-anchor="middle" class="h">Internal-Server</text><text x="205" y="454" text-anchor="middle" class="p">192.168.1.100:80</text><rect x="350" y="270" width="130" height="75" rx="10" fill="#fff4cc" stroke="#c9a227"/><text x="415" y="313" text-anchor="middle" class="h">Switch0</text><rect x="590" y="205" width="230" height="210" rx="14" fill="#fde2e0" stroke="#bf5b55" stroke-width="2"/><text x="705" y="238" text-anchor="middle" class="h">Router0 · NAT border</text><text x="705" y="270" text-anchor="middle" class="p">Inside: 192.168.1.1</text><text x="705" y="298" text-anchor="middle" class="p">Outside: 203.0.113.1/30</text><text x="705" y="330" text-anchor="middle" class="p">PAT: many → one</text><text x="705" y="360" text-anchor="middle" class="p">Static PAT 8080 → .100:80</text><rect x="880" y="235" width="200" height="150" rx="14" fill="#ffe8cc" stroke="#d38b20" stroke-width="2"/><text x="980" y="270" text-anchor="middle" class="h">Router1 · ISP</text><text x="980" y="300" text-anchor="middle" class="p">203.0.113.2/30</text><text x="980" y="328" text-anchor="middle" class="p">198.51.100.1/24</text><rect x="1160" y="155" width="260" height="110" rx="12" fill="#e6f4e2" stroke="#6c9f54" stroke-width="2"/><text x="1290" y="190" text-anchor="middle" class="h">Public-Web</text><text x="1290" y="220" text-anchor="middle" class="p">198.51.100.2:80</text><rect x="1160" y="365" width="260" height="110" rx="12" fill="#fff" stroke="#6c9f54" stroke-width="2"/><text x="1290" y="400" text-anchor="middle" class="h">Outside-Client</text><text x="1290" y="430" text-anchor="middle" class="p">198.51.100.50</text><path d="M270 227H350M270 327H350M310 437H330V345H350M480 307H590M820 310H880M1080 280H1120V210H1160M1080 340H1120V420H1160" class="e"/><path d="M1160 455H950V500H705V415" class="e d"/><text x="930" y="522" text-anchor="middle" class="p">Inbound 203.0.113.1:8080 → 192.168.1.100:80</text></svg>